<?xml version="1.0" standalone="no"?>
<!DOCTYPE svg PUBLIC "-//W3C//DTD SVG 20010904//EN"
 "http://www.w3.org/TR/2001/REC-SVG-20010904/DTD/svg10.dtd">
<svg version="1.0" xmlns="http://www.w3.org/2000/svg"
 width="335.000000pt" height="249.000000pt" viewBox="0 0 335.000000 249.000000"
 preserveAspectRatio="xMidYMid meet">

<g transform="translate(0.000000,249.000000) scale(0.100000,-0.100000)"
fill="#000000" stroke="none">
<path d="M1002 1018 l3 -443 127 -3 127 -3 3 150 3 150 182 -150 182 -149 228
0 c193 0 225 2 213 14 -8 7 -150 104 -315 215 -165 111 -301 206 -303 210 -1
5 139 107 312 227 l314 219 -220 3 -220 2 -184 -145 c-101 -80 -186 -145 -189
-145 -3 0 -5 65 -5 145 l0 145 -130 0 -130 0 2 -442z"/>
<path d="M454 1426 c-9 -36 -77 -55 -105 -30 -18 16 -21 16 -60 -1 -37 -17
-40 -21 -35 -49 5 -24 1 -36 -25 -62 -27 -28 -35 -31 -57 -23 -13 5 -26 8 -27
7 -1 -2 -12 -20 -25 -42 l-23 -39 21 -16 c21 -15 21 -19 9 -61 -10 -34 -18
-46 -35 -48 -19 -3 -22 -9 -22 -53 0 -42 3 -49 23 -54 17 -5 26 -18 36 -53 11
-43 11 -48 -8 -63 -19 -16 -19 -16 5 -57 22 -37 27 -40 49 -32 20 7 29 4 55
-20 27 -25 29 -31 20 -56 -12 -30 -11 -31 44 -61 28 -15 31 -14 47 6 16 20 21
21 63 10 39 -10 46 -15 46 -36 0 -23 3 -24 53 -21 44 3 52 6 55 24 2 15 15 23
48 32 42 11 47 11 63 -9 l17 -21 42 21 c47 24 45 21 33 54 -8 21 -5 29 23 56
28 27 36 30 58 22 23 -9 27 -6 48 31 22 39 22 40 3 61 -18 19 -18 27 -8 62 9
32 17 41 38 43 25 3 27 7 27 52 0 44 -2 49 -29 58 -23 8 -29 18 -35 52 -5 32
-3 47 9 60 15 16 15 21 1 47 -29 54 -32 56 -54 44 -17 -9 -25 -6 -54 23 -27
27 -32 39 -26 56 10 27 8 31 -36 54 -34 18 -37 18 -54 3 -22 -20 -25 -20 -74
-7 -26 8 -38 17 -40 33 -3 19 -10 22 -50 25 -43 3 -48 1 -54 -22z m69 -8 c2
-7 0 -24 -5 -38 -10 -24 -11 -24 -18 -5 -13 31 -11 55 4 55 8 0 16 -6 19 -12z
m205 -74 c-11 -24 -11 -24 -25 -4 -12 17 -12 24 -3 36 20 24 42 -1 28 -32z
m-404 12 c18 -28 11 -37 -18 -26 -14 5 -16 9 -7 14 9 6 9 11 0 22 -7 8 -7 14
-1 14 5 0 17 -11 26 -24z m326 -42 c72 -33 143 -108 170 -182 29 -76 25 -205
-9 -270 -34 -66 -97 -128 -160 -159 -47 -23 -70 -27 -141 -28 -77 0 -92 3
-152 33 -115 56 -178 152 -186 282 -3 60 0 86 17 132 72 189 278 275 461 192z
m234 -123 c-4 -3 -9 0 -11 7 -4 10 -8 10 -19 1 -11 -9 -14 -7 -14 15 l0 26 25
-22 c14 -12 22 -24 19 -27z m-711 19 c-6 -23 -33 -27 -33 -6 0 13 13 23 32 25
3 1 4 -8 1 -19z m-46 -205 c-2 -5 -12 -10 -22 -10 -10 0 -20 5 -22 10 -1 6 8
10 22 10 14 0 24 -4 22 -10z m792 -25 c-15 -10 -39 -2 -39 12 0 6 7 5 16 -2
13 -11 16 -10 22 11 5 20 7 21 10 5 2 -10 -2 -22 -9 -26z m-51 -152 c7 -7 12
-19 11 -27 0 -10 -4 -6 -10 7 -10 26 -35 25 -33 -2 1 -9 -2 -16 -7 -16 -5 0
-9 6 -9 13 0 13 19 37 30 37 3 0 11 -5 18 -12z m-688 -13 c4 3 10 -2 14 -10 3
-9 0 -15 -9 -15 -8 0 -15 -5 -15 -11 0 -8 -5 -8 -15 1 -8 7 -15 18 -15 25 0
15 23 26 28 13 2 -4 7 -6 12 -3z"/>
<path d="M706 1371 c-4 -5 -2 -12 3 -15 5 -4 12 -2 15 3 4 5 2 12 -3 15 -5 4
-12 2 -15 -3z"/>
<path d="M601 1274 c0 -11 3 -14 6 -6 3 7 2 16 -1 19 -3 4 -6 -2 -5 -13z"/>
<path d="M366 1258 c3 -5 10 -6 15 -3 13 9 11 12 -6 12 -8 0 -12 -4 -9 -9z"/>
<path d="M392 1234 c-206 -103 -177 -405 46 -470 114 -34 226 14 293 123 34
54 37 155 9 221 -24 56 -83 116 -136 138 -56 23 -152 18 -212 -12z m225 -9
c84 -42 133 -123 133 -219 l0 -55 -37 -6 c-21 -3 -50 -8 -65 -10 -28 -4 -28
-4 -28 54 0 33 -4 61 -10 63 -5 2 -12 29 -16 61 l-7 58 28 -3 c15 -2 30 2 32
7 2 6 -13 11 -34 10 l-38 0 -3 -77 c-2 -69 -13 -99 -24 -67 -2 7 -12 7 -31 -2
-22 -10 -30 -10 -36 -1 -6 10 -16 9 -44 -3 -36 -15 -37 -17 -37 -65 0 -49 0
-49 -24 -38 -21 9 -27 23 -38 87 -14 72 -13 76 5 83 12 5 17 16 15 30 -2 18
-9 22 -28 20 l-24 -3 29 31 c71 74 186 92 282 45z m-272 -107 c6 -4 2 -8 -7
-8 -10 0 -18 7 -18 17 0 9 3 12 8 7 4 -5 12 -12 17 -16z m-57 -71 c-13 -87
-34 -106 -25 -24 5 48 26 112 34 104 2 -2 -2 -38 -9 -80z m299 1 c-3 -8 -6 -5
-6 6 -1 11 2 17 5 13 3 -3 4 -12 1 -19z m-118 -80 c-1 -35 -4 -53 -6 -40 -5
26 -39 30 -46 5 -3 -10 -5 3 -6 29 -1 35 3 50 17 57 36 21 42 14 41 -51z m70
0 c-1 -35 -4 -53 -6 -40 -6 30 -35 25 -44 -8 -5 -17 -7 -8 -8 32 -1 44 3 59
17 67 36 21 42 14 41 -51z m71 18 c0 -39 -2 -44 -20 -39 -14 4 -22 -1 -29 -18
-8 -20 -10 -13 -10 33 -1 46 2 57 17 61 39 10 42 7 42 -37z m-290 24 c0 -5 -2
-10 -4 -10 -3 0 -8 5 -11 10 -3 6 -1 10 4 10 6 0 11 -4 11 -10z m1 -31 c19
-17 21 -22 9 -29 -8 -6 -19 -10 -25 -10 -5 0 -4 4 4 9 12 8 12 12 -2 26 -16
16 -21 25 -14 25 2 0 15 -9 28 -21z m269 -55 c0 -8 -5 -12 -10 -9 -6 4 -8 11
-5 16 9 14 15 11 15 -7z m-257 -15 c-23 -23 -53 -20 -53 6 0 11 10 15 37 15
l37 0 -21 -21z m117 11 c0 -5 -4 -10 -10 -10 -5 0 -10 5 -10 10 0 6 5 10 10
10 6 0 10 -4 10 -10z m67 -12 c-3 -8 -6 -5 -6 6 -1 11 2 17 5 13 3 -3 4 -12 1
-19z m130 -15 c-3 -10 -5 -4 -5 12 0 17 2 24 5 18 2 -7 2 -21 0 -30z m81 12
c-12 -26 -31 -23 -58 9 -11 14 -7 16 29 16 39 0 40 -1 29 -25z m-318 -15 c0
-6 -9 -10 -21 -10 -11 0 -17 5 -14 10 3 6 1 10 -4 10 -6 0 -11 -4 -11 -10 0
-5 -7 -10 -17 -10 -13 0 -12 4 7 20 17 15 27 17 41 9 11 -5 19 -14 19 -19z
m217 -2 c-3 -7 -5 -2 -5 12 0 14 2 19 5 13 2 -7 2 -19 0 -25z m-20 0 c-3 -8
-6 -5 -6 6 -1 11 2 17 5 13 3 -3 4 -12 1 -19z m-17 1 c0 -5 -24 -8 -52 -8 -47
1 -49 2 -18 8 56 10 70 10 70 0z m85 1 c3 -5 1 -10 -4 -10 -6 0 -11 5 -11 10
0 6 2 10 4 10 3 0 8 -4 11 -10z m10 -50 c-16 -18 -20 -19 -27 -5 -11 19 -34
19 -42 0 -8 -21 -204 -22 -212 -2 -8 21 -34 16 -34 -6 0 -18 -2 -18 -22 -5
-49 33 -33 37 163 38 l192 0 -18 -20z m-61 -45 c-10 -8 -24 -13 -31 -10 -6 2
-13 0 -15 -5 -5 -15 -75 -15 -94 0 -11 9 -15 10 -10 3 5 -9 -1 -13 -19 -13
-14 0 -24 4 -21 9 3 5 -2 8 -11 7 -9 0 -18 4 -20 9 -2 7 36 11 108 13 62 1
114 4 117 7 3 3 8 3 10 0 3 -3 -3 -12 -14 -20z"/>
<path d="M440 1200 c0 -5 5 -10 10 -10 6 0 10 5 10 10 0 6 -4 10 -10 10 -5 0
-10 -4 -10 -10z"/>
<path d="M404 1174 c4 -9 1 -23 -5 -30 -9 -11 -7 -14 10 -14 12 0 21 -6 21
-15 0 -8 4 -15 9 -15 5 0 7 10 4 23 -4 18 -3 19 6 7 9 -13 11 -12 11 3 0 10 5
15 10 12 6 -4 8 -11 5 -16 -4 -5 -1 -9 4 -9 16 0 13 16 -6 36 -16 16 -16 16 5
10 13 -5 22 -3 22 3 0 6 -16 11 -35 11 -19 0 -35 -5 -35 -11 0 -5 -5 -7 -10
-4 -6 4 -8 11 -5 16 4 5 1 9 -5 9 -7 0 -9 -7 -6 -16z"/>
<path d="M670 1240 c0 -5 5 -10 11 -10 5 0 7 5 4 10 -3 6 -8 10 -11 10 -2 0
-4 -4 -4 -10z"/>
<path d="M293 1204 c-7 -7 -9 -15 -5 -17 4 -3 13 1 19 9 7 7 9 15 5 17 -4 3
-13 -1 -19 -9z"/>
<path d="M752 1145 c-2 -25 24 -60 33 -46 3 6 1 11 -5 11 -6 0 -8 5 -4 12 4 6
3 8 -4 4 -6 -3 -12 3 -15 16 -4 20 -4 20 -5 3z"/>
<path d="M220 1071 c0 -6 5 -13 10 -16 6 -3 10 1 10 9 0 9 -4 16 -10 16 -5 0
-10 -4 -10 -9z"/>
<path d="M785 1020 c-3 -5 -1 -10 4 -10 6 0 11 5 11 10 0 6 -2 10 -4 10 -3 0
-8 -4 -11 -10z"/>
<path d="M1958 1352 l-127 -87 0 -250 -1 -250 148 -97 148 -98 205 0 204 0 93
120 c50 65 92 121 92 122 0 2 -142 2 -315 0 l-315 -4 -2 316 -3 315 -127 -87z"/>
<path d="M2670 1221 l0 -90 88 -72 c83 -68 87 -74 92 -118 l5 -46 43 -3 c23
-2 42 1 42 6 0 18 -60 92 -75 92 -13 0 -15 25 -15 160 l0 160 -90 0 -90 0 0
-89z"/>
<path d="M3060 1062 c0 -68 -1 -72 -22 -72 -13 0 -28 -4 -33 -8 -13 -8 -55
-67 -55 -76 0 -3 25 -6 55 -6 l55 0 0 -79 0 -78 90 -82 90 -83 0 164 0 163
-85 109 c-46 60 -87 111 -90 114 -3 3 -5 -27 -5 -66z"/>
<path d="M141 484 c-12 -15 -21 -37 -21 -49 0 -23 38 -80 47 -71 3 3 -2 12
-11 21 -28 28 -31 64 -7 96 27 36 20 39 -8 3z"/>
<path d="M1009 506 c-3 -3 -2 -29 1 -58 5 -51 6 -53 38 -56 18 -2 40 2 48 9
16 13 20 109 4 109 -5 0 -10 -15 -10 -34 0 -50 -9 -66 -36 -66 -22 0 -24 4
-24 50 0 44 -7 60 -21 46z"/>
<path d="M1190 450 c0 -33 4 -60 10 -60 6 0 10 17 10 38 l1 37 32 -38 c18 -20
35 -37 40 -37 4 0 7 27 7 60 0 33 -4 60 -10 60 -5 0 -10 -17 -10 -37 l-1 -38
-30 38 c-17 20 -35 37 -40 37 -5 0 -9 -27 -9 -60z"/>
<path d="M1380 450 c0 -33 4 -60 10 -60 6 0 10 27 10 60 0 33 -4 60 -10 60 -6
0 -10 -27 -10 -60z"/>
<path d="M1486 473 c9 -21 20 -48 25 -60 14 -36 27 -27 54 33 29 65 29 64 14
64 -6 0 -18 -18 -26 -40 -9 -22 -19 -40 -23 -40 -4 0 -12 18 -19 40 -7 23 -18
40 -27 40 -12 0 -12 -5 2 -37z"/>
<path d="M1660 450 l0 -60 45 0 c25 0 45 5 45 10 0 6 -16 10 -36 10 -42 0 -43
23 -1 28 37 5 34 22 -4 22 -41 0 -33 24 9 28 49 5 38 22 -13 22 l-45 0 0 -60z"/>
<path d="M1830 450 c0 -33 4 -60 10 -60 6 0 10 9 10 20 0 11 7 20 15 20 8 0
19 -9 25 -20 6 -11 18 -20 27 -20 15 0 15 2 0 18 -13 15 -14 19 -1 36 8 11 14
23 14 27 0 19 -35 39 -66 39 l-34 0 0 -60z m70 20 c0 -15 -7 -20 -25 -20 -18
0 -25 5 -25 20 0 15 7 20 25 20 18 0 25 -5 25 -20z"/>
<path d="M2011 496 c-18 -22 -7 -45 29 -57 42 -15 38 -33 -6 -26 -25 4 -34 2
-31 -6 2 -7 21 -12 43 -12 33 0 39 4 42 23 3 18 -4 26 -33 38 -39 16 -38 39 2
29 18 -4 24 -2 21 7 -7 19 -53 21 -67 4z"/>
<path d="M2170 450 c0 -33 4 -60 10 -60 6 0 10 27 10 60 0 33 -4 60 -10 60 -6
0 -10 -27 -10 -60z"/>
<path d="M2260 500 c0 -5 9 -10 20 -10 17 0 20 -7 20 -50 0 -27 5 -50 10 -50
6 0 10 23 10 50 0 43 3 50 20 50 11 0 20 5 20 10 0 6 -22 10 -50 10 -27 0 -50
-4 -50 -10z"/>
<path d="M2445 473 c14 -21 25 -48 25 -60 0 -13 5 -23 10 -23 6 0 10 10 10 23
0 12 11 39 25 60 18 26 22 37 12 37 -7 0 -20 -11 -27 -25 -7 -14 -16 -25 -20
-25 -4 0 -12 11 -18 25 -6 14 -19 25 -27 25 -12 0 -10 -8 10 -37z"/>
<path d="M2623 490 c22 -31 22 -78 0 -102 -9 -10 -11 -18 -5 -18 18 0 43 57
36 84 -3 14 -15 33 -27 43 -21 18 -21 18 -4 -7z"/>
<path d="M170 451 c0 -35 12 -45 41 -36 32 11 22 59 -13 63 -25 3 -28 0 -28
-27z m48 -4 c2 -10 -3 -17 -12 -17 -10 0 -16 9 -16 21 0 24 23 21 28 -4z"/>
<path d="M250 445 c0 -28 4 -35 20 -35 25 0 27 20 3 21 -15 0 -15 2 2 9 17 7
17 9 3 9 -26 1 -22 19 5 24 19 4 18 4 -5 6 -26 1 -28 -2 -28 -34z"/>
<path d="M310 445 c0 -28 4 -35 19 -35 28 0 37 20 9 21 -22 0 -22 1 -3 9 17 7
17 9 3 9 -26 1 -22 19 5 24 19 4 18 4 -5 6 -26 1 -28 -2 -28 -34z"/>
<path d="M371 443 c1 -32 2 -34 8 -13 5 18 9 21 15 11 7 -11 10 -11 17 0 6 10
9 8 9 -9 0 -13 4 -21 8 -18 5 3 7 19 4 36 -4 26 -7 29 -20 18 -12 -10 -16 -10
-19 0 -9 26 -23 10 -22 -25z"/>
<path d="M450 445 c0 -31 3 -35 25 -35 31 0 33 20 3 21 -21 0 -21 1 -4 8 19 7
19 8 0 16 -18 7 -17 8 6 15 l25 8 -27 1 c-25 1 -28 -2 -28 -34z"/>
<path d="M510 450 c0 -35 22 -49 46 -29 24 20 14 53 -18 57 -25 3 -28 0 -28
-28z m45 0 c0 -7 -6 -15 -12 -17 -8 -3 -13 4 -13 17 0 13 5 20 13 18 6 -3 12
-11 12 -18z"/>
<path d="M617 472 c6 -4 13 -21 16 -37 l4 -30 2 32 c0 17 7 34 14 36 6 3 -1 6
-18 6 -16 0 -25 -3 -18 -7z"/>
<path d="M673 464 c-15 -39 38 -67 60 -32 8 12 7 21 -2 32 -17 21 -50 20 -58
0z m47 -14 c0 -11 -6 -20 -14 -20 -18 0 -29 16 -21 30 11 18 35 11 35 -10z"/>
<path d="M780 445 c0 -32 3 -36 23 -33 17 2 22 10 22 33 0 23 -5 31 -22 33
-20 3 -23 -1 -23 -33z m30 15 c0 -5 -4 -10 -10 -10 -5 0 -10 5 -10 10 0 6 5
10 10 10 6 0 10 -4 10 -10z m7 -26 c-3 -3 -12 -4 -19 -1 -8 3 -5 6 6 6 11 1
17 -2 13 -5z"/>
<path d="M845 469 c-13 -19 4 -59 25 -59 25 0 27 20 3 21 -15 0 -15 2 2 9 17
7 17 9 3 9 -10 1 -18 5 -18 10 0 5 8 12 18 14 13 4 12 5 -5 6 -12 0 -25 -4
-28 -10z"/>
</g>
</svg>
